# xmcd
#
# Track frame offsets:
#	150
#	12291
#	43499
#	51485
#	89371
#	123525
#	149104
#	187497
#	202296
#	223895
#	242260
#	274626
#	312382
#	345690
#
# Disc length: 4619 seconds
#
# Revision: 1
# Processed by: cddbd v1.5PL3 Copyright (c) Steve Scherf et al.
# Submitted via: audiograbber 1.82.01
#
DISCID=f012090e
DTITLE=Gov't Mule - 1995-10-24 - Rick's, East Lansing, MI - Disc 1
DYEAR=1900
DGENRE=
TTITLE0=Gov't Mule - Pygmy Twylyte
TTITLE1=Gov't Mule - Blind Man In The Dark
TTITLE2=Gov't Mule - Grinnin' In Your Face
TTITLE3=Gov't Mule - Mother Earth
TTITLE4=Gov't Mule - Don't Step On The Grass, Sam
TTITLE5=Gov't Mule - Temporary Saint
TTITLE6=Gov't Mule - Trane - 3rd Stone Jam
TTITLE7=Gov't Mule - St. Stephen Jam
TTITLE8=Gov't Mule - Eternity's Breathe Jam - Trane
TTITLE9=Gov't Mule - Rockin' Horse
TTITLE10=Gov't Mule - Mr. Big - Never In My Life - Mr. Big
TTITLE11=Gov't Mule - The Same Thing
TTITLE12=Gov't Mule - Painted Silver Light
TTITLE13=Gov't Mule - redundant fade out
EXTD=
EXTT0=
EXTT1=
EXTT2=
EXTT3=
EXTT4=
EXTT5=
EXTT6=
EXTT7=
EXTT8=
EXTT9=
EXTT10=
EXTT11=
EXTT12=
EXTT13=
PLAYORDER=
